<svg clip-rule="evenodd" fill-rule="evenodd" stroke-linecap="round" stroke-linejoin="round" stroke-miterlimit="1.5" viewBox="0 0 3544 3544" xmlns="http://www.w3.org/2000/svg"><path d="m1220.39 1830.98c-226.04-88.65-386.267-308.85-386.267-566.17 0-335.509 272.387-607.9 607.897-607.9s607.9 272.391 607.9 607.9c0 70.29-11.95 137.8-33.93 200.62-9.95 28.41-21.94 55.86-35.8 82.17-32.34 61.37-74.87 116.55-125.34 163.28-42.47 39.32-90.55 72.67-142.91 98.68-10.62 5.28-21.42 10.26-32.38 14.92-52.63 22.39-109.05 37.57-168.02 44.29 30.5-52.81 75.36-96.3 129.23-125.12 11.93-4.96 23.64-10.36 35.11-16.17 90.43-45.84 165.65-117.42 215.98-205.07 15.18-26.43 28.1-54.32 38.49-83.41 19.45-54.45 30.04-113.09 30.04-174.19 0-286.095-232.27-518.367-518.37-518.367-286.09 0-518.364 232.272-518.364 518.367 0 220.62 138.124 409.23 332.534 484.01 28.33 10.9 57.86 19.37 88.32 25.18-15.18 26.43-28.09 54.33-38.48 83.41-29.41-6.73-58.02-15.6-85.64-26.43zm161.14-245.44c-151.25-28.4-265.84-161.29-265.84-320.73 0-180.11 146.22-326.333 326.33-326.333s326.34 146.223 326.34 326.333c0 59.29-15.85 114.9-43.52 162.83-30.5 52.81-75.36 96.31-129.23 125.13-11.32 6.05-23.04 11.46-35.11 16.17-36.73 14.33-76.69 22.2-118.48 22.2-20.66 0-40.89-1.92-60.49-5.6zm175.29-113.6c72.74-40.44 122-118.07 122-207.13 0-130.69-106.1-236.8-236.8-236.8-130.69 0-236.8 106.11-236.8 236.8s106.11 236.8 236.8 236.8c28.98 0 56.75-5.22 82.42-14.76 11.22-4.17 22.03-9.17 32.38-14.91z" transform="matrix(1.32314 -.950057 .950057 1.32314 -1935.33 1128.21)"/><path d="m1663.65 698.641c226.05 88.654 386.27 308.849 386.27 566.169 0 335.51-272.39 607.9-607.9 607.9s-607.897-272.39-607.897-607.9c0-70.29 11.954-137.8 33.939-200.62 9.94-28.41 21.932-55.86 35.796-82.166 32.341-61.369 74.873-116.549 125.342-163.281 42.46-39.326 90.55-72.669 142.91-98.685 10.62-5.277 21.42-10.253 32.38-14.916 52.62-22.388 109.04-37.567 168.01-44.293-30.49 52.812-75.35 96.305-129.22 125.122-11.94 4.964-23.65 10.361-35.11 16.172-90.43 45.839-165.65 117.416-215.988 205.067-15.179 26.43-28.095 54.32-38.485 83.41-19.448 54.45-30.041 113.09-30.041 174.19 0 286.09 232.274 518.37 518.364 518.37 286.1 0 518.37-232.28 518.37-518.37 0-220.62-138.12-409.23-332.53-484.008-28.33-10.897-57.86-19.376-88.33-25.185 15.18-26.43 28.1-54.322 38.49-83.41 29.41 6.732 58.01 15.601 85.63 26.434zm-161.13 245.443c151.25 28.399 265.84 161.286 265.84 320.726 0 180.11-146.23 326.33-326.34 326.33s-326.33-146.22-326.33-326.33c0-59.28 15.84-114.9 43.52-162.83 30.5-52.82 75.36-96.31 129.23-125.124 11.32-6.056 23.04-11.463 35.11-16.173 36.73-14.336 76.69-22.206 118.47-22.206 20.67 0 40.89 1.925 60.5 5.607zm-175.29 113.596c-72.74 40.44-122.01 118.08-122.01 207.13 0 130.69 106.11 236.8 236.8 236.8 130.7 0 236.8-106.11 236.8-236.8s-106.1-236.8-236.8-236.8c-28.97 0-56.74 5.22-82.41 14.76-11.22 4.17-22.04 9.17-32.38 14.91z" transform="matrix(1.32314 -.950057 .950057 1.32314 -740.65 1808.06)"/><path d="m1380.51 1035.84c3.49 28.54 4.39 57.13 2.79 85.45-5.29 93.93-37.99 184.87-94.09 260.75-8.07 8.96-15.56 18.35-22.45 28.11-32.79 46.46-51.96 101.37-55.29 158.03-3.02 51.43 7.02 104.31 31.76 153.63 75.17 149.84 257.86 210.45 407.69 135.28 149.84-75.18 210.45-257.86 135.28-407.7-66.55-132.64-217.35-195.36-355.03-155.86 22.48-59.94 34.83-123.6 36.12-188.15 192.95-18.94 386.58 80.33 478.66 263.86 119.42 238.01 23.13 528.19-214.88 647.6-238 119.42-528.19 23.13-647.6-214.88-25.5-50.83-41.16-104.03-47.71-157.45-3.5-28.53-4.39-57.13-2.8-85.45 5.3-93.93 37.99-184.87 94.09-260.75 8.08-8.96 15.57-18.35 22.46-28.11 32.79-46.46 51.96-101.37 55.28-158.03 3.02-51.43-7.01-104.31-31.75-153.629-75.18-149.837-257.86-210.452-407.696-135.277s-210.451 257.856-135.276 407.686c66.548 132.65 217.344 195.37 355.023 155.87-22.478 59.94-34.83 123.6-36.12 188.15-192.947 18.94-386.578-80.33-478.661-263.86-119.412-238.01-23.127-528.191 214.882-647.603 238.008-119.413 528.188-23.128 647.598 214.881 25.5 50.828 41.17 104.036 47.72 157.452z" fill="none" stroke="#000" stroke-width="47.62" transform="matrix(1.72836 -.274858 .274858 1.72836 -684.798 -212.593)"/></svg>