<?xml version="1.0" encoding="UTF-8" standalone="no"?>
<!DOCTYPE svg PUBLIC "-//W3C//DTD SVG 1.1//EN" "http://www.w3.org/Graphics/SVG/1.1/DTD/svg11.dtd">
<svg width="100%" height="100%" viewBox="0 0 3544 3544" version="1.1" xmlns="http://www.w3.org/2000/svg" xmlns:xlink="http://www.w3.org/1999/xlink" xml:space="preserve" xmlns:serif="http://www.serif.com/" style="fill-rule:evenodd;clip-rule:evenodd;stroke-linejoin:round;stroke-miterlimit:2;">
    <g transform="matrix(1.55125,0,0,1.55125,-924.826,-471.919)">
        <path d="M1463.46,1894.74C1456.34,1894.97 1449.2,1895.09 1442.02,1895.09C1094.16,1895.09 811.74,1612.67 811.74,1264.81C811.74,916.947 1094.16,634.527 1442.02,634.527C1694.49,634.527 1912.49,783.286 2013.06,997.859C2032.97,1040.33 2048.28,1085.38 2058.34,1132.37C2067.49,1175.08 2072.31,1219.38 2072.31,1264.81C2072.31,1270.25 2072.24,1275.67 2072.1,1281.08C2070.94,1326.85 2064.89,1371.42 2054.45,1414.29C2022.87,1543.92 1951.16,1657.91 1853.24,1742.32C1819.36,1771.54 1782.33,1797.21 1742.75,1818.76C1718.16,1781.31 1700.6,1738.84 1691.92,1693.24C1743.02,1663.35 1788.3,1624.59 1825.65,1579.06C1854.19,1544.27 1878.1,1505.53 1896.42,1463.79C1919.61,1410.97 1933.85,1353.34 1937.23,1292.84C1937.75,1283.56 1938.01,1274.22 1938.01,1264.81C1938.01,1223.27 1932.89,1182.92 1923.25,1144.35C1912.1,1099.71 1894.89,1057.47 1872.56,1018.53C1786.99,869.385 1626.16,768.826 1442.02,768.826C1168.28,768.826 946.039,991.069 946.039,1264.81C946.039,1530.56 1155.49,1747.77 1418.18,1760.23C1426.08,1760.61 1434.03,1760.8 1442.02,1760.8C1480.27,1760.8 1517.5,1756.46 1553.27,1748.25C1564.42,1792.88 1581.63,1835.13 1603.96,1874.06C1558.9,1886.02 1511.87,1893.12 1463.46,1894.74ZM1404.42,1611.52C1229.61,1592.74 1093.31,1444.57 1093.31,1264.81C1093.31,1072.35 1249.56,916.094 1442.02,916.094C1564.01,916.094 1671.44,978.862 1733.77,1073.83C1758.36,1111.29 1775.92,1153.75 1784.6,1199.35C1733.5,1229.24 1688.22,1268.01 1650.87,1313.53C1654.51,1297.88 1656.44,1281.57 1656.44,1264.81C1656.44,1222.7 1644.28,1183.42 1623.28,1150.27C1585.25,1090.26 1518.26,1050.39 1442.02,1050.39C1323.68,1050.39 1227.61,1146.47 1227.61,1264.81C1227.61,1376.42 1313.07,1468.23 1422.07,1478.31C1428.64,1478.92 1435.3,1479.23 1442.02,1479.23C1494.6,1479.23 1542.79,1460.26 1580.1,1428.81C1556.91,1481.63 1542.67,1539.25 1539.29,1599.76C1508.41,1608.72 1475.78,1613.53 1442.02,1613.53C1429.32,1613.53 1416.77,1612.85 1404.42,1611.52ZM1722.5,1471.95C1731.54,1453.9 1742.1,1436.74 1754.02,1420.65C1744.98,1438.69 1734.41,1455.85 1722.5,1471.95Z"/>
    </g>
    <g transform="matrix(1.55125,0,0,1.55125,-5.75139,91.1459)">
        <path d="M1420.59,634.885C1427.71,634.647 1434.85,634.527 1442.02,634.527C1789.89,634.527 2072.31,916.947 2072.31,1264.81C2072.31,1612.67 1789.89,1895.09 1442.02,1895.09C1189.56,1895.09 971.562,1746.33 870.984,1531.76C851.076,1489.29 835.768,1444.24 825.704,1397.26C816.555,1354.55 811.74,1310.24 811.74,1264.81C811.74,1259.37 811.809,1253.95 811.946,1248.55C813.108,1202.77 819.161,1158.2 829.601,1115.34C861.178,985.703 932.89,871.713 1030.8,787.299C1064.69,758.085 1101.71,732.412 1141.3,710.86C1165.88,748.315 1183.45,790.78 1192.12,836.378C1141.03,866.268 1095.74,905.036 1058.4,950.56C1029.86,985.353 1005.95,1024.09 987.627,1065.83C964.44,1118.65 950.196,1176.28 946.819,1236.78C946.301,1246.06 946.039,1255.4 946.039,1264.81C946.039,1306.35 951.157,1346.7 960.795,1385.27C971.948,1429.91 989.155,1472.15 1011.49,1511.09C1097.06,1660.24 1257.89,1760.8 1442.02,1760.8C1715.77,1760.8 1938.01,1538.55 1938.01,1264.81C1938.01,999.063 1728.56,781.851 1465.87,769.39C1457.97,769.016 1450.02,768.826 1442.02,768.826C1403.78,768.826 1366.55,773.163 1330.78,781.372C1319.63,736.74 1302.42,694.495 1280.08,655.561C1325.14,643.598 1372.18,636.506 1420.59,634.885ZM1479.63,918.102C1654.43,936.88 1790.74,1085.05 1790.74,1264.81C1790.74,1457.27 1634.49,1613.53 1442.02,1613.53C1320.04,1613.53 1212.6,1550.76 1150.27,1455.79C1125.69,1418.33 1108.13,1375.87 1099.45,1330.27C1095.42,1309.06 1093.31,1287.18 1093.31,1264.81C1093.31,1208.82 1106.53,1155.88 1130.03,1108.97C1139.07,1090.93 1149.63,1073.77 1161.54,1057.67C1206.43,997.024 1270.5,951.419 1344.76,929.863C1375.63,920.899 1408.27,916.094 1442.02,916.094C1454.73,916.094 1467.27,916.774 1479.63,918.102ZM1260.77,1379.35C1298.79,1439.36 1365.79,1479.23 1442.02,1479.23C1560.36,1479.23 1656.44,1383.15 1656.44,1264.81C1656.44,1153.2 1570.98,1061.39 1461.97,1051.31C1455.4,1050.7 1448.75,1050.39 1442.02,1050.39C1389.44,1050.39 1341.26,1069.36 1303.95,1100.82C1269.17,1130.13 1243.83,1170.31 1233.18,1216.09C1229.53,1231.74 1227.61,1248.05 1227.61,1264.81C1227.61,1306.92 1239.77,1346.2 1260.77,1379.35Z"/>
    </g>
</svg>
